<svg width="30" height="26" viewBox="0 0 30 26" fill="none" xmlns="http://www.w3.org/2000/svg">
<path d="M9.51758 6.85254C9.06641 6.85254 8.65462 6.74154 8.28223 6.51953C7.90983 6.29753 7.60905 6.00033 7.37988 5.62793C7.15788 5.24837 7.04688 4.82943 7.04688 4.37109C7.04688 3.91992 7.15788 3.51172 7.37988 3.14648C7.60905 2.77409 7.90983 2.47689 8.28223 2.25488C8.65462 2.03288 9.06641 1.92188 9.51758 1.92188C9.96875 1.92188 10.3805 2.03288 10.7529 2.25488C11.1253 2.47689 11.4225 2.77409 11.6445 3.14648C11.8665 3.51172 11.9775 3.91992 11.9775 4.37109C11.9775 4.82943 11.8665 5.24837 11.6445 5.62793C11.4225 6.00033 11.1253 6.29753 10.7529 6.51953C10.3805 6.74154 9.96875 6.85254 9.51758 6.85254ZM25.749 22.085C26.0355 22.2425 26.2253 22.4788 26.3184 22.7939C26.4186 23.109 26.3936 23.4134 26.2432 23.707C26.1214 23.9505 25.9066 24.1367 25.5986 24.2656C25.2979 24.4017 24.9684 24.373 24.6104 24.1797L17.4883 20.3555L13.6426 18.1748L7.36914 17.7129V23.1377C7.36914 23.46 7.25098 23.7393 7.01465 23.9756C6.77832 24.2119 6.49544 24.3301 6.16602 24.3301C5.83659 24.3301 5.55371 24.2119 5.31738 23.9756C5.08105 23.7393 4.96289 23.46 4.96289 23.1377V16.7461L2.90039 13.126C2.76432 12.8896 2.71061 12.6354 2.73926 12.3633C2.77507 12.0911 2.88965 11.862 3.08301 11.6758L6.04785 8.7002C6.31283 8.43522 6.5957 8.24902 6.89648 8.1416C7.20443 8.02702 7.5625 7.96973 7.9707 7.96973H10.5811C11.2041 7.96973 11.7591 8.15951 12.2461 8.53906C12.7402 8.91862 13.0625 9.40918 13.2129 10.0107L14.04 13.3301C14.0973 13.5736 14.0866 13.8063 14.0078 14.0283C13.929 14.2503 13.7894 14.4365 13.5889 14.5869C13.8252 14.859 14.083 15.0954 14.3623 15.2959L18.5303 18.1963L25.749 22.085ZM5.43555 12.7178L6.875 15.2314H7.5625L8.66895 14.5977L7.22949 10.9131L5.43555 12.7178Z" fill="white"/>
</svg>
