<svg width="35" height="26" viewBox="0 0 35 26" fill="none" xmlns="http://www.w3.org/2000/svg">
<path d="M8.36914 5.60645C7.91797 5.60645 7.50618 5.49902 7.13379 5.28418C6.76855 5.06217 6.47493 4.76855 6.25293 4.40332C6.03809 4.03092 5.93066 3.61914 5.93066 3.16797C5.93066 2.7168 6.03809 2.30859 6.25293 1.94336C6.47493 1.57096 6.76855 1.27376 7.13379 1.05176C7.50618 0.829753 7.91797 0.71875 8.36914 0.71875C8.82031 0.71875 9.2321 0.829753 9.60449 1.05176C9.97689 1.27376 10.2705 1.57096 10.4854 1.94336C10.7074 2.30859 10.8184 2.7168 10.8184 3.16797C10.8184 3.61914 10.7074 4.03092 10.4854 4.40332C10.2705 4.76855 9.97689 5.06217 9.60449 5.28418C9.2321 5.49902 8.82031 5.60645 8.36914 5.60645ZM4.59863 25.3506C4.22624 25.3506 3.93978 25.2074 3.73926 24.9209C3.53874 24.6344 3.49219 24.3086 3.59961 23.9434C3.61393 23.8932 3.66406 23.6891 3.75 23.3311C3.83594 22.973 3.94336 22.5182 4.07227 21.9668C4.20117 21.4225 4.34082 20.8353 4.49121 20.2051C4.6416 19.5677 4.78483 18.9447 4.9209 18.3359C5.05697 17.7272 5.17513 17.1865 5.27539 16.7139C5.38281 16.234 5.45443 15.8796 5.49023 15.6504C5.54036 15.3639 5.57975 15.0238 5.6084 14.6299C5.63704 14.2288 5.65853 13.8099 5.67285 13.373C5.68717 12.9362 5.69792 12.5137 5.70508 12.1055C5.7194 11.6973 5.72656 11.3428 5.72656 11.042C5.72656 10.9632 5.69076 10.9131 5.61914 10.8916C5.54753 10.8701 5.49023 10.8916 5.44727 10.9561C5.23958 11.2568 5.00326 11.5934 4.73828 11.9658C4.48047 12.3311 4.22266 12.6927 3.96484 13.0508C3.71419 13.4017 3.49219 13.7096 3.29883 13.9746C3.10547 14.2396 2.97298 14.415 2.90137 14.501C2.72949 14.6943 2.51465 14.8089 2.25684 14.8447C2.00618 14.8805 1.76986 14.834 1.54785 14.7051C1.24707 14.5475 1.05729 14.3327 0.978516 14.0605C0.906901 13.7812 0.935547 13.5306 1.06445 13.3086C1.10742 13.2227 1.15755 13.1403 1.21484 13.0615C1.27214 12.9756 1.32585 12.8932 1.37598 12.8145L4.2334 8.59277C4.52702 8.16309 4.85645 7.80501 5.22168 7.51855C5.58691 7.2321 6.02376 7.01725 6.53223 6.87402C7.04069 6.73079 7.65299 6.65918 8.36914 6.65918C9.09245 6.65918 9.70475 6.73079 10.2061 6.87402C10.7145 7.01725 11.1514 7.23568 11.5166 7.5293C11.8818 7.81576 12.2113 8.17025 12.5049 8.59277L14.1055 10.9453C13.6328 10.9525 13.2389 11.1136 12.9238 11.4287C12.6087 11.7438 12.4297 12.0983 12.3867 12.4922L11.291 10.9561C11.2409 10.8916 11.1836 10.8701 11.1191 10.8916C11.0547 10.9131 11.0225 10.9632 11.0225 11.042C11.0225 11.3356 11.026 11.6901 11.0332 12.1055C11.0404 12.5137 11.0511 12.9362 11.0654 13.373C11.0869 13.8099 11.112 14.2288 11.1406 14.6299C11.1693 15.0238 11.2051 15.3639 11.248 15.6504C11.2839 15.8652 11.3483 16.1911 11.4414 16.6279C11.5345 17.0576 11.6419 17.5518 11.7637 18.1104C11.8926 18.6689 12.0251 19.249 12.1611 19.8506C12.3044 20.4521 12.4404 21.0286 12.5693 21.5801C12.6982 22.1315 12.8128 22.6149 12.9131 23.0303C13.0133 23.4528 13.0885 23.7572 13.1387 23.9434C13.2461 24.3086 13.1995 24.6344 12.999 24.9209C12.7985 25.2074 12.5156 25.3506 12.1504 25.3506C11.5918 25.3506 11.2194 25.014 11.0332 24.3408C10.9688 24.1117 10.8757 23.7536 10.7539 23.2666C10.6322 22.7868 10.4925 22.2461 10.335 21.6445C10.1846 21.0501 10.0342 20.4593 9.88379 19.8721C9.7334 19.2777 9.59375 18.7477 9.46484 18.2822C9.3431 17.8167 9.25 17.4909 9.18555 17.3047C9.0638 16.918 8.94922 16.6494 8.8418 16.499C8.73438 16.3415 8.57682 16.2627 8.36914 16.2627C8.16862 16.2627 8.01465 16.3415 7.90723 16.499C7.7998 16.6494 7.68164 16.918 7.55273 17.3047C7.48112 17.5267 7.38086 17.8669 7.25195 18.3252C7.13021 18.7835 6.99414 19.2992 6.84375 19.8721C6.70052 20.445 6.55371 21.0215 6.40332 21.6016C6.26009 22.1816 6.1276 22.7152 6.00586 23.2021C5.88411 23.6891 5.78743 24.0687 5.71582 24.3408C5.52246 25.014 5.15007 25.3506 4.59863 25.3506ZM17.4893 12.9863C16.988 12.9863 16.5583 12.8073 16.2002 12.4492C15.8421 12.0911 15.6631 11.6615 15.6631 11.1602C15.6631 10.6589 15.8421 10.2292 16.2002 9.87109C16.5583 9.51302 16.988 9.33398 17.4893 9.33398C17.9906 9.33398 18.4202 9.51302 18.7783 9.87109C19.1436 10.2292 19.3262 10.6589 19.3262 11.1602C19.3262 11.6615 19.1436 12.0911 18.7783 12.4492C18.4202 12.8073 17.9906 12.9863 17.4893 12.9863ZM15.126 25.3506C14.7965 25.3506 14.5459 25.2217 14.374 24.9639C14.2021 24.7061 14.1556 24.4232 14.2344 24.1152C14.2415 24.0866 14.2809 23.9183 14.3525 23.6104C14.4313 23.3096 14.5208 22.9336 14.6211 22.4824C14.7285 22.0312 14.8359 21.5658 14.9434 21.0859C15.0579 20.6061 15.1582 20.1729 15.2441 19.7861C15.3301 19.3923 15.3874 19.1094 15.416 18.9375C15.459 18.7012 15.4876 18.4183 15.502 18.0889C15.5234 17.7594 15.5378 17.4372 15.5449 17.1221C15.5521 16.807 15.5557 16.5563 15.5557 16.3701C15.5557 16.2126 15.5342 16.0765 15.4912 15.9619C15.4482 15.8473 15.3838 15.7399 15.2979 15.6396C15.0257 15.3102 14.7428 14.9772 14.4492 14.6406C14.1628 14.2969 13.9121 13.9997 13.6973 13.749C13.4896 13.4984 13.3643 13.3408 13.3213 13.2764C13.1852 13.0758 13.1315 12.8646 13.1602 12.6426C13.196 12.4206 13.2962 12.2272 13.4609 12.0625C13.64 11.8691 13.862 11.7689 14.127 11.7617C14.3919 11.7546 14.5996 11.8333 14.75 11.998L15.9531 13.2871C16.1966 13.5521 16.4329 13.7454 16.6621 13.8672C16.8913 13.9818 17.167 14.0391 17.4893 14.0391C17.8187 14.0391 18.098 13.9818 18.3271 13.8672C18.5563 13.7454 18.7926 13.5521 19.0361 13.2871L20.2393 11.998C20.3896 11.8333 20.5938 11.7546 20.8516 11.7617C21.1165 11.7689 21.3421 11.8691 21.5283 12.0625C21.6859 12.2272 21.779 12.4206 21.8076 12.6426C21.8434 12.8646 21.7969 13.0758 21.668 13.2764C21.625 13.3408 21.4961 13.4984 21.2812 13.749C21.0736 13.9997 20.8229 14.2969 20.5293 14.6406C20.2428 14.9772 19.9635 15.3102 19.6914 15.6396C19.6055 15.7399 19.5374 15.8473 19.4873 15.9619C19.4443 16.0765 19.4229 16.2126 19.4229 16.3701C19.4229 16.5563 19.4264 16.807 19.4336 17.1221C19.4408 17.4372 19.4551 17.7594 19.4766 18.0889C19.498 18.4183 19.5267 18.7012 19.5625 18.9375C19.5911 19.1094 19.6484 19.3923 19.7344 19.7861C19.8203 20.1729 19.917 20.6061 20.0244 21.0859C20.139 21.5658 20.25 22.0312 20.3574 22.4824C20.4648 22.9336 20.5544 23.3096 20.626 23.6104C20.6976 23.9183 20.737 24.0866 20.7441 24.1152C20.8301 24.4232 20.7835 24.7061 20.6045 24.9639C20.4326 25.2217 20.1855 25.3506 19.8633 25.3506C19.6341 25.3506 19.4336 25.2826 19.2617 25.1465C19.097 25.0104 18.9788 24.7992 18.9072 24.5127C18.8499 24.305 18.7676 23.9935 18.6602 23.5781C18.5599 23.1699 18.4489 22.7295 18.3271 22.2568C18.2054 21.7842 18.0944 21.3509 17.9941 20.957C17.8939 20.5632 17.8151 20.2767 17.7578 20.0977C17.6934 19.9186 17.6468 19.8076 17.6182 19.7646C17.5895 19.7217 17.5465 19.7002 17.4893 19.7002C17.4391 19.7002 17.3962 19.7217 17.3604 19.7646C17.3317 19.8076 17.2887 19.9186 17.2314 20.0977C17.1742 20.2767 17.0918 20.5632 16.9844 20.957C16.8841 21.3509 16.7731 21.7842 16.6514 22.2568C16.5368 22.7295 16.4258 23.1699 16.3184 23.5781C16.2181 23.9935 16.1393 24.305 16.082 24.5127C16.0104 24.7992 15.8887 25.0104 15.7168 25.1465C15.5449 25.2826 15.348 25.3506 15.126 25.3506ZM26.6201 5.60645C26.1689 5.60645 25.7572 5.49902 25.3848 5.28418C25.0124 5.06217 24.7152 4.76855 24.4932 4.40332C24.2783 4.03092 24.1709 3.61914 24.1709 3.16797C24.1709 2.7168 24.2783 2.30859 24.4932 1.94336C24.7152 1.57096 25.0124 1.27376 25.3848 1.05176C25.7572 0.829753 26.1689 0.71875 26.6201 0.71875C27.0713 0.71875 27.4795 0.829753 27.8447 1.05176C28.21 1.27376 28.5036 1.57096 28.7256 1.94336C28.9476 2.30859 29.0586 2.7168 29.0586 3.16797C29.0586 3.61914 28.9476 4.03092 28.7256 4.40332C28.5036 4.76855 28.21 5.06217 27.8447 5.28418C27.4795 5.49902 27.0713 5.60645 26.6201 5.60645ZM22.8389 25.3506C22.4736 25.3506 22.1908 25.2074 21.9902 24.9209C21.7897 24.6344 21.7432 24.3086 21.8506 23.9434C21.8936 23.7572 21.9652 23.4528 22.0654 23.0303C22.1657 22.6149 22.2803 22.1315 22.4092 21.5801C22.5381 21.0286 22.6706 20.4521 22.8066 19.8506C22.9499 19.249 23.0824 18.6689 23.2041 18.1104C23.333 17.5518 23.444 17.0576 23.5371 16.6279C23.6302 16.1911 23.6947 15.8652 23.7305 15.6504C23.7734 15.3639 23.8092 15.0238 23.8379 14.6299C23.8737 14.2288 23.8988 13.8099 23.9131 13.373C23.9346 12.9362 23.9489 12.5137 23.9561 12.1055C23.9632 11.6901 23.9668 11.3356 23.9668 11.042C23.9668 10.9632 23.931 10.9131 23.8594 10.8916C23.7949 10.8701 23.7412 10.8916 23.6982 10.9561L22.6025 12.4922C22.5596 12.0983 22.3805 11.7438 22.0654 11.4287C21.7503 11.1136 21.3529 10.9525 20.873 10.9453L22.4844 8.59277C22.778 8.17025 23.1074 7.81576 23.4727 7.5293C23.8379 7.23568 24.2712 7.01725 24.7725 6.87402C25.2809 6.73079 25.8968 6.65918 26.6201 6.65918C27.3363 6.65918 27.945 6.73079 28.4463 6.87402C28.9548 7.01725 29.3916 7.2321 29.7568 7.51855C30.1221 7.80501 30.4515 8.16309 30.7451 8.59277L33.6025 12.8145C33.6527 12.8932 33.7064 12.9756 33.7637 13.0615C33.821 13.1403 33.8747 13.2227 33.9248 13.3086C34.0465 13.5306 34.068 13.7812 33.9893 14.0605C33.9176 14.3327 33.735 14.5475 33.4414 14.7051C33.2122 14.834 32.9723 14.8805 32.7217 14.8447C32.471 14.8089 32.2562 14.6943 32.0771 14.501C32.0055 14.415 31.873 14.2396 31.6797 13.9746C31.4935 13.7096 31.2715 13.4017 31.0137 13.0508C30.763 12.6927 30.5052 12.3311 30.2402 11.9658C29.9824 11.5934 29.7461 11.2568 29.5312 10.9561C29.4883 10.8916 29.431 10.8701 29.3594 10.8916C29.2949 10.9131 29.2627 10.9632 29.2627 11.042C29.2627 11.3428 29.2663 11.6973 29.2734 12.1055C29.2806 12.5137 29.2913 12.9362 29.3057 13.373C29.3271 13.8099 29.3522 14.2288 29.3809 14.6299C29.4095 15.0238 29.4453 15.3639 29.4883 15.6504C29.5312 15.8796 29.6029 16.234 29.7031 16.7139C29.8034 17.1865 29.9215 17.7272 30.0576 18.3359C30.2008 18.9447 30.3441 19.5677 30.4873 20.2051C30.6377 20.8353 30.7773 21.4225 30.9062 21.9668C31.0352 22.5182 31.1426 22.973 31.2285 23.3311C31.3216 23.6891 31.3753 23.8932 31.3896 23.9434C31.4899 24.3086 31.4398 24.6344 31.2393 24.9209C31.0459 25.2074 30.763 25.3506 30.3906 25.3506C29.832 25.3506 29.4596 25.014 29.2734 24.3408C29.2018 24.0687 29.1051 23.6891 28.9834 23.2021C28.8617 22.7152 28.7256 22.1816 28.5752 21.6016C28.4248 21.0215 28.278 20.445 28.1348 19.8721C27.9915 19.2992 27.8555 18.7835 27.7266 18.3252C27.6048 17.8669 27.5081 17.5267 27.4365 17.3047C27.3076 16.918 27.1895 16.6494 27.082 16.499C26.9746 16.3415 26.8206 16.2627 26.6201 16.2627C26.4124 16.2627 26.2549 16.3415 26.1475 16.499C26.04 16.6494 25.9255 16.918 25.8037 17.3047C25.7321 17.4909 25.6354 17.8167 25.5137 18.2822C25.3919 18.7477 25.2523 19.2777 25.0947 19.8721C24.9443 20.4593 24.7939 21.0501 24.6436 21.6445C24.4932 22.2461 24.3571 22.7868 24.2354 23.2666C24.1136 23.7536 24.0205 24.1117 23.9561 24.3408C23.7699 25.014 23.3975 25.3506 22.8389 25.3506Z" fill="#B08BFF"/>
</svg>
