<svg width="25" height="24" viewBox="0 0 25 24" fill="none" xmlns="http://www.w3.org/2000/svg">
<path d="M11.5117 23.792C11.168 23.792 10.8708 23.6953 10.6201 23.502C10.3766 23.3086 10.2155 23.04 10.1367 22.6963L9.61035 20.4727C9.44564 20.4154 9.28092 20.3545 9.11621 20.29C8.95866 20.2256 8.80827 20.1611 8.66504 20.0967L6.73145 21.2891C6.44499 21.4681 6.14421 21.5433 5.8291 21.5146C5.514 21.486 5.2347 21.3499 4.99121 21.1064L3.61621 19.7422C3.37988 19.4987 3.24382 19.2158 3.20801 18.8936C3.17936 18.5641 3.26172 18.2562 3.45508 17.9697L4.62598 16.0469C4.56152 15.8965 4.49707 15.7461 4.43262 15.5957C4.37533 15.4453 4.32161 15.2913 4.27148 15.1338L2.03711 14.6074C1.69336 14.5358 1.4248 14.3783 1.23145 14.1348C1.03809 13.8841 0.941406 13.5833 0.941406 13.2324V11.3096C0.941406 10.973 1.03809 10.6829 1.23145 10.4395C1.4248 10.1888 1.69336 10.0241 2.03711 9.94531L4.25 9.41895C4.30013 9.23991 4.35742 9.0752 4.42188 8.9248C4.49349 8.77441 4.55794 8.63118 4.61523 8.49512L3.43359 6.5293C3.24023 6.23568 3.15788 5.93132 3.18652 5.61621C3.21517 5.30111 3.35482 5.02539 3.60547 4.78906L4.99121 3.41406C5.24186 3.1849 5.514 3.05241 5.80762 3.0166C6.10124 2.98079 6.39486 3.04167 6.68848 3.19922L8.6543 4.42383C8.79753 4.35221 8.9515 4.28418 9.11621 4.21973C9.28092 4.14811 9.44564 4.08366 9.61035 4.02637L10.1367 1.79199C10.2155 1.4554 10.3766 1.19043 10.6201 0.99707C10.8708 0.796549 11.168 0.696289 11.5117 0.696289H13.4775C13.8213 0.696289 14.1149 0.796549 14.3584 0.99707C14.609 1.19043 14.7702 1.4554 14.8418 1.79199L15.3789 4.04785C15.5508 4.10514 15.7155 4.16602 15.873 4.23047C16.0306 4.29492 16.1774 4.36296 16.3135 4.43457L18.3115 3.19922C18.598 3.04167 18.888 2.98438 19.1816 3.02734C19.4753 3.06315 19.7438 3.18848 19.9873 3.40332L21.3838 4.78906C21.6344 5.02539 21.7705 5.30111 21.792 5.61621C21.8206 5.93132 21.7454 6.23568 21.5664 6.5293L20.374 8.49512C20.4313 8.63118 20.4922 8.77441 20.5566 8.9248C20.6211 9.0752 20.682 9.23991 20.7393 9.41895L22.9629 9.94531C23.2995 10.0241 23.5645 10.1888 23.7578 10.4395C23.9512 10.6829 24.0479 10.973 24.0479 11.3096V13.2324C24.0479 13.5833 23.9512 13.8841 23.7578 14.1348C23.5645 14.3783 23.2995 14.5358 22.9629 14.6074L20.7178 15.1338C20.6676 15.2913 20.6104 15.4453 20.5459 15.5957C20.4886 15.7461 20.4242 15.8965 20.3525 16.0469L21.5342 17.9697C21.7275 18.2562 21.8099 18.5641 21.7812 18.8936C21.7526 19.2158 21.6165 19.4987 21.373 19.7422L19.998 21.1064C19.7546 21.3499 19.4753 21.486 19.1602 21.5146C18.8451 21.5433 18.5443 21.4681 18.2578 21.2891L16.3135 20.0967C16.1702 20.1611 16.0199 20.2256 15.8623 20.29C15.7048 20.3545 15.5436 20.4154 15.3789 20.4727L14.8418 22.6963C14.7702 23.04 14.609 23.3086 14.3584 23.502C14.1149 23.6953 13.8213 23.792 13.4775 23.792H11.5117ZM12.5 15.9824C13.1803 15.9824 13.8034 15.8141 14.3691 15.4775C14.9349 15.141 15.3861 14.6898 15.7227 14.124C16.0592 13.5511 16.2275 12.9209 16.2275 12.2334C16.2275 11.5531 16.0592 10.9336 15.7227 10.375C15.3861 9.80924 14.9349 9.35807 14.3691 9.02148C13.8034 8.6849 13.1803 8.5166 12.5 8.5166C11.8125 8.5166 11.1859 8.6849 10.6201 9.02148C10.0615 9.35807 9.61035 9.80924 9.2666 10.375C8.93001 10.9336 8.76172 11.5531 8.76172 12.2334C8.76172 12.9209 8.93001 13.5511 9.2666 14.124C9.60319 14.6898 10.0544 15.141 10.6201 15.4775C11.1859 15.8141 11.8125 15.9824 12.5 15.9824Z" fill="#7A7A7A"/>
</svg>
