<svg width="30" height="26" viewBox="0 0 30 26" fill="none" xmlns="http://www.w3.org/2000/svg">
<path d="M13.7822 5.34863C13.3239 5.34863 12.9085 5.23763 12.5361 5.01562C12.1637 4.79362 11.8665 4.49642 11.6445 4.12402C11.4225 3.75163 11.3115 3.33984 11.3115 2.88867C11.3115 2.43034 11.4225 2.01855 11.6445 1.65332C11.8665 1.28092 12.1637 0.983724 12.5361 0.761719C12.9085 0.539714 13.3239 0.428711 13.7822 0.428711C14.2262 0.428711 14.6344 0.539714 15.0068 0.761719C15.3864 0.983724 15.6836 1.28092 15.8984 1.65332C16.1204 2.01855 16.2314 2.43034 16.2314 2.88867C16.2314 3.33984 16.1204 3.75163 15.8984 4.12402C15.6836 4.49642 15.3864 4.79362 15.0068 5.01562C14.6344 5.23763 14.2262 5.34863 13.7822 5.34863ZM3.63086 25.5439C3.39453 25.3005 3.27279 25.0068 3.26562 24.6631C3.26562 24.3265 3.38379 24.04 3.62012 23.8037L7.92773 19.5176L7.1543 16.4668C6.99674 15.8151 6.95378 15.1562 7.02539 14.4902C7.10417 13.8171 7.29036 13.1797 7.58398 12.5781L9.22754 9.28027C9.27767 9.18001 9.27767 9.09049 9.22754 9.01172C9.18457 8.93294 9.10938 8.89355 9.00195 8.89355H6.81055L5.03809 12.46C4.88053 12.7679 4.64779 12.972 4.33984 13.0723C4.0319 13.1725 3.72038 13.1475 3.40527 12.9971C3.09733 12.8538 2.89323 12.6247 2.79297 12.3096C2.69271 11.9873 2.71777 11.6794 2.86816 11.3857L4.99512 7.14258C5.10254 6.94206 5.24935 6.78092 5.43555 6.65918C5.62891 6.53027 5.84375 6.46582 6.08008 6.46582H13.6963C14.6273 6.46582 15.415 6.78809 16.0596 7.43262L18.9277 10.333L23.9551 11.8154C24.2773 11.9085 24.5173 12.1055 24.6748 12.4062C24.8324 12.6999 24.8646 13.0078 24.7715 13.3301C24.6497 13.7168 24.4277 13.971 24.1055 14.0928C23.7832 14.2074 23.5075 14.2288 23.2783 14.1572L17.9395 12.5566C17.7461 12.4922 17.5814 12.3955 17.4453 12.2666L14.792 9.5918C14.7204 9.52018 14.6452 9.49154 14.5664 9.50586C14.4948 9.52018 14.4375 9.57031 14.3945 9.65625L12.0527 14.3398L15.7051 17.9492C15.7767 18.0208 15.8376 18.1032 15.8877 18.1963C15.945 18.2822 15.988 18.3682 16.0166 18.4541L17.875 24.2979C17.9753 24.6201 17.9502 24.9281 17.7998 25.2217C17.6566 25.5225 17.4167 25.723 17.0801 25.8232C16.7865 25.9092 16.4857 25.8841 16.1777 25.748C15.877 25.6191 15.6693 25.3828 15.5547 25.0391L13.7822 19.5176L10.5596 16.7354C10.4808 16.6637 10.402 16.6494 10.3232 16.6924C10.2445 16.7282 10.2087 16.7998 10.2158 16.9072L10.4736 19.7539C10.488 19.9759 10.4736 20.1621 10.4307 20.3125C10.3949 20.4629 10.2946 20.6133 10.1299 20.7637L5.33887 25.5439C5.08105 25.8018 4.78743 25.9199 4.45801 25.8984C4.13574 25.877 3.86003 25.7588 3.63086 25.5439ZM23.6113 20.6992C23.1243 20.6992 22.6768 20.5811 22.2686 20.3447C21.8675 20.1012 21.5452 19.779 21.3018 19.3779C21.0583 18.9697 20.9365 18.5186 20.9365 18.0244C20.9365 17.5303 21.0583 17.0827 21.3018 16.6816C21.5452 16.2734 21.8675 15.9512 22.2686 15.7148C22.6768 15.4714 23.1243 15.3496 23.6113 15.3496C24.1126 15.3496 24.5638 15.4714 24.9648 15.7148C25.373 15.9512 25.6953 16.2734 25.9316 16.6816C26.1751 17.0827 26.2969 17.5303 26.2969 18.0244C26.2969 18.5186 26.1751 18.9697 25.9316 19.3779C25.6953 19.779 25.373 20.1012 24.9648 20.3447C24.5638 20.5811 24.1126 20.6992 23.6113 20.6992Z" fill="white"/>
</svg>
