<svg width="28" height="26" viewBox="0 0 28 26" fill="none" xmlns="http://www.w3.org/2000/svg">
<path d="M17.0479 5.4668C16.5895 5.4668 16.1742 5.35938 15.8018 5.14453C15.4294 4.92253 15.1322 4.62533 14.9102 4.25293C14.6953 3.87337 14.5879 3.46159 14.5879 3.01758C14.5879 2.55924 14.6953 2.14388 14.9102 1.77148C15.1322 1.39909 15.4294 1.10189 15.8018 0.879883C16.1742 0.657878 16.5895 0.546875 17.0479 0.546875C17.499 0.546875 17.9108 0.657878 18.2832 0.879883C18.6556 1.10189 18.9528 1.39909 19.1748 1.77148C19.3968 2.14388 19.5078 2.55924 19.5078 3.01758C19.5078 3.46159 19.3968 3.87337 19.1748 4.25293C18.9528 4.62533 18.6556 4.92253 18.2832 5.14453C17.9108 5.35938 17.499 5.4668 17.0479 5.4668ZM6.04785 13.5449C5.73275 13.3874 5.52148 13.151 5.41406 12.8359C5.30664 12.5208 5.32812 12.2093 5.47852 11.9014L7.82031 7.25C7.92057 7.04948 8.06738 6.88835 8.26074 6.7666C8.46126 6.6377 8.67611 6.57324 8.90527 6.57324H16.1885C16.9189 6.57324 17.542 6.69141 18.0576 6.92773C18.5804 7.1569 19.0674 7.49707 19.5186 7.94824L20.7539 9.19434L22.3223 6.08984C22.4727 5.78906 22.709 5.58496 23.0312 5.47754C23.3607 5.36296 23.6758 5.37728 23.9766 5.52051C24.306 5.67806 24.5173 5.92155 24.6104 6.25098C24.7035 6.57324 24.6748 6.88835 24.5244 7.19629L22.2148 11.8369C22.0859 12.1019 21.8997 12.2881 21.6562 12.3955C21.4199 12.5029 21.1693 12.5387 20.9043 12.5029C20.6465 12.46 20.4209 12.3454 20.2275 12.1592L17.585 9.63477C17.5133 9.56315 17.4346 9.53809 17.3486 9.55957C17.2627 9.57389 17.2018 9.62402 17.166 9.70996L14.9639 14.1035H19.9697C20.2848 14.1035 20.5426 14.1966 20.7432 14.3828C20.9508 14.569 21.0833 14.7982 21.1406 15.0703C21.2051 15.3353 21.18 15.5931 21.0654 15.8438L18.1543 22.2354C18.0039 22.5719 17.7819 22.7939 17.4883 22.9014C17.2018 23.0088 16.8831 22.998 16.5322 22.8691C16.2171 22.7474 15.9987 22.5218 15.877 22.1924C15.7624 21.863 15.7767 21.5407 15.9199 21.2256L17.9502 16.7031L12.4287 17.0469C11.8988 17.0755 11.444 16.9896 11.0645 16.7891C10.6921 16.5814 10.402 16.3021 10.1943 15.9512C9.98665 15.6003 9.87565 15.2171 9.86133 14.8018C9.84701 14.3792 9.9401 13.9674 10.1406 13.5664L12.2246 9.43066C12.2819 9.3304 12.2819 9.24089 12.2246 9.16211C12.1745 9.08333 12.0921 9.04395 11.9775 9.04395H9.66797L7.68066 12.9971C7.5446 13.2764 7.32975 13.4805 7.03613 13.6094C6.74251 13.7311 6.41309 13.7096 6.04785 13.5449ZM2.86816 24.749C2.71061 24.4196 2.69629 24.0938 2.8252 23.7715C2.96126 23.4564 3.19043 23.2272 3.5127 23.084L8.80859 20.8066L10.0547 17.4766C10.3626 17.7201 10.7207 17.9062 11.1289 18.0352C11.5443 18.1641 11.999 18.2142 12.4932 18.1855L12.9443 18.1533L10.8926 22.2891C10.7637 22.554 10.5596 22.7474 10.2803 22.8691L4.50098 25.3936C4.37207 25.4508 4.20378 25.4795 3.99609 25.4795C3.78841 25.4795 3.58073 25.4258 3.37305 25.3184C3.17253 25.2109 3.00423 25.0212 2.86816 24.749ZM22.2041 25.877C21.7529 25.877 21.3376 25.766 20.958 25.5439C20.5856 25.3291 20.2884 25.0355 20.0664 24.6631C19.8516 24.2907 19.7441 23.8717 19.7441 23.4062C19.7441 22.9479 19.8516 22.5326 20.0664 22.1602C20.2884 21.7878 20.5856 21.4906 20.958 21.2686C21.3376 21.0465 21.7529 20.9355 22.2041 20.9355C22.6696 20.9355 23.0885 21.0465 23.4609 21.2686C23.8333 21.4906 24.1305 21.7878 24.3525 22.1602C24.5745 22.5326 24.6855 22.9479 24.6855 23.4062C24.6855 23.8717 24.5745 24.2907 24.3525 24.6631C24.1305 25.0355 23.8333 25.3291 23.4609 25.5439C23.0885 25.766 22.6696 25.877 22.2041 25.877Z" fill="white"/>
</svg>
