<svg width="24" height="22" viewBox="0 0 24 22" fill="none" xmlns="http://www.w3.org/2000/svg">
<path d="M0.0976562 20.6543V2.10254C0.0976562 1.76595 0.208659 1.47949 0.430664 1.24316C0.659831 1.00684 0.94987 0.888672 1.30078 0.888672C1.63737 0.888672 1.91667 1.00684 2.13867 1.24316C2.36784 1.47949 2.48242 1.76595 2.48242 2.10254V18.9355C2.48242 19.1289 2.58268 19.2256 2.7832 19.2256H22.6992C23.0286 19.2256 23.3115 19.3402 23.5479 19.5693C23.7842 19.7985 23.9023 20.0814 23.9023 20.418C23.9023 20.7689 23.7842 21.0553 23.5479 21.2773C23.3115 21.4993 23.0286 21.6104 22.6992 21.6104H1.06445C0.777995 21.6104 0.545247 21.5208 0.366211 21.3418C0.187174 21.1699 0.0976562 20.9408 0.0976562 20.6543ZM1.26855 13.7793V11.7812L8.46582 7.61328L13.6436 11.9854L21.7754 7.1084L22.6777 8.60156L13.5254 14.0908L8.31543 9.70801L1.26855 13.7793ZM8.27246 11.0938C7.87858 11.0938 7.51693 10.9971 7.1875 10.8037C6.85807 10.6032 6.59668 10.3418 6.40332 10.0195C6.20996 9.6901 6.11328 9.32845 6.11328 8.93457C6.11328 8.54069 6.20996 8.17904 6.40332 7.84961C6.59668 7.52018 6.85807 7.26237 7.1875 7.07617C7.51693 6.88281 7.87858 6.78613 8.27246 6.78613C8.66634 6.78613 9.02441 6.88281 9.34668 7.07617C9.67611 7.26237 9.9375 7.52018 10.1309 7.84961C10.3314 8.17904 10.4316 8.54069 10.4316 8.93457C10.4316 9.32845 10.3314 9.6901 10.1309 10.0195C9.9375 10.3418 9.67611 10.6032 9.34668 10.8037C9.02441 10.9971 8.66634 11.0938 8.27246 11.0938ZM13.5576 15.1865C13.1637 15.1865 12.8021 15.0898 12.4727 14.8965C12.1504 14.7031 11.889 14.4453 11.6885 14.123C11.4951 13.7936 11.3984 13.4284 11.3984 13.0273C11.3984 12.6335 11.4951 12.2754 11.6885 11.9531C11.889 11.6237 12.1504 11.3623 12.4727 11.1689C12.8021 10.9756 13.1637 10.8789 13.5576 10.8789C13.9587 10.8789 14.3203 10.9756 14.6426 11.1689C14.972 11.3623 15.2298 11.6237 15.416 11.9531C15.6094 12.2754 15.7061 12.6335 15.7061 13.0273C15.7061 13.4284 15.6094 13.7936 15.416 14.123C15.2298 14.4453 14.972 14.7031 14.6426 14.8965C14.3203 15.0898 13.9587 15.1865 13.5576 15.1865ZM21.6357 10.2559C21.2419 10.2559 20.8802 10.1592 20.5508 9.96582C20.2285 9.77246 19.9707 9.51465 19.7773 9.19238C19.584 8.86296 19.4873 8.5013 19.4873 8.10742C19.4873 7.70638 19.584 7.34473 19.7773 7.02246C19.9707 6.69303 20.2285 6.43164 20.5508 6.23828C20.8802 6.04492 21.2419 5.94824 21.6357 5.94824C22.0296 5.94824 22.3913 6.04492 22.7207 6.23828C23.0501 6.43164 23.3115 6.69303 23.5049 7.02246C23.6982 7.34473 23.7949 7.70638 23.7949 8.10742C23.7949 8.5013 23.6982 8.86296 23.5049 9.19238C23.3115 9.51465 23.0501 9.77246 22.7207 9.96582C22.3913 10.1592 22.0296 10.2559 21.6357 10.2559Z" fill="#7A7A7A"/>
</svg>
