<svg width="26" height="21" viewBox="0 0 26 21" fill="none" xmlns="http://www.w3.org/2000/svg">
<path d="M5.37305 6.15137C5.67383 6.15137 5.92806 6.04753 6.13574 5.83984C6.35059 5.625 6.45801 5.37077 6.45801 5.07715C6.45801 4.77637 6.35059 4.52214 6.13574 4.31445C5.92806 4.10677 5.67383 4.00293 5.37305 4.00293C5.08659 4.00293 4.83594 4.11035 4.62109 4.3252C4.40625 4.53288 4.29883 4.78353 4.29883 5.07715C4.29883 5.36361 4.40625 5.61426 4.62109 5.8291C4.83594 6.04395 5.08659 6.15137 5.37305 6.15137ZM5.37305 9.55664C5.67383 9.55664 5.92806 9.4528 6.13574 9.24512C6.35059 9.03027 6.45801 8.77246 6.45801 8.47168C6.45801 8.17806 6.35059 7.92741 6.13574 7.71973C5.92806 7.50488 5.67383 7.39746 5.37305 7.39746C5.08659 7.39746 4.83594 7.50488 4.62109 7.71973C4.40625 7.92741 4.29883 8.17806 4.29883 8.47168C4.29883 8.7653 4.40625 9.01953 4.62109 9.23438C4.83594 9.44922 5.08659 9.55664 5.37305 9.55664ZM5.37305 12.9297C5.67383 12.9297 5.92806 12.8258 6.13574 12.6182C6.35059 12.4105 6.45801 12.1562 6.45801 11.8555C6.45801 11.5618 6.35417 11.3148 6.14648 11.1143C5.9388 10.9066 5.68099 10.8027 5.37305 10.8027C5.07943 10.8027 4.8252 10.9066 4.61035 11.1143C4.40267 11.3219 4.29883 11.569 4.29883 11.8555C4.29883 12.1562 4.40267 12.4105 4.61035 12.6182C4.8252 12.8258 5.07943 12.9297 5.37305 12.9297ZM5.37305 16.4961C5.67383 16.4961 5.92806 16.3923 6.13574 16.1846C6.35059 15.9769 6.45801 15.7227 6.45801 15.4219C6.45801 15.1211 6.35059 14.8669 6.13574 14.6592C5.92806 14.4443 5.67383 14.3369 5.37305 14.3369C5.08659 14.3369 4.83594 14.4443 4.62109 14.6592C4.40625 14.874 4.29883 15.1283 4.29883 15.4219C4.29883 15.7155 4.40625 15.9697 4.62109 16.1846C4.83594 16.3923 5.08659 16.4961 5.37305 16.4961ZM8.6709 5.85059H20.96C21.182 5.85059 21.3646 5.77539 21.5078 5.625C21.6582 5.47461 21.7334 5.29199 21.7334 5.07715C21.7334 4.8623 21.6582 4.67969 21.5078 4.5293C21.3574 4.37174 21.1748 4.29297 20.96 4.29297H8.6709C8.45605 4.29297 8.27344 4.37174 8.12305 4.5293C7.97266 4.67969 7.89746 4.8623 7.89746 5.07715C7.89746 5.29199 7.97266 5.47461 8.12305 5.625C8.27344 5.77539 8.45605 5.85059 8.6709 5.85059ZM8.6709 9.25586H15.5459C15.7536 9.25586 15.9326 9.18066 16.083 9.03027C16.2406 8.87272 16.3193 8.68652 16.3193 8.47168C16.3193 8.25684 16.2406 8.07422 16.083 7.92383C15.9326 7.76628 15.7536 7.6875 15.5459 7.6875H8.6709C8.45605 7.6875 8.27344 7.76628 8.12305 7.92383C7.97266 8.07422 7.89746 8.25684 7.89746 8.47168C7.89746 8.68652 7.97266 8.87272 8.12305 9.03027C8.27344 9.18066 8.45605 9.25586 8.6709 9.25586ZM8.6709 12.6504H20.96C21.182 12.6504 21.3646 12.5752 21.5078 12.4248C21.6582 12.2673 21.7334 12.0775 21.7334 11.8555C21.7334 11.6478 21.6582 11.4688 21.5078 11.3184C21.3646 11.168 21.182 11.0928 20.96 11.0928H8.6709C8.45605 11.0928 8.27344 11.168 8.12305 11.3184C7.97266 11.4688 7.89746 11.6478 7.89746 11.8555C7.89746 12.0775 7.97266 12.2673 8.12305 12.4248C8.27344 12.5752 8.45605 12.6504 8.6709 12.6504ZM8.6709 16.2061H15.5459C15.7536 16.2061 15.9326 16.1309 16.083 15.9805C16.2406 15.8229 16.3193 15.6367 16.3193 15.4219C16.3193 15.207 16.2441 15.0244 16.0938 14.874C15.9434 14.7236 15.7607 14.6484 15.5459 14.6484H8.6709C8.45605 14.6484 8.27344 14.7236 8.12305 14.874C7.97266 15.0244 7.89746 15.207 7.89746 15.4219C7.89746 15.6367 7.97266 15.8229 8.12305 15.9805C8.27344 16.1309 8.45605 16.2061 8.6709 16.2061ZM3.87988 20.3848C2.69108 20.3848 1.78516 20.0768 1.16211 19.4609C0.546224 18.8451 0.238281 17.9535 0.238281 16.7861V3.73438C0.238281 2.55273 0.546224 1.65755 1.16211 1.04883C1.78516 0.432943 2.69108 0.125 3.87988 0.125H22.1309C23.3197 0.125 24.222 0.432943 24.8379 1.04883C25.4538 1.66471 25.7617 2.5599 25.7617 3.73438V16.7861C25.7617 17.9535 25.4538 18.8451 24.8379 19.4609C24.222 20.0768 23.3197 20.3848 22.1309 20.3848H3.87988Z" fill="#7A7A7A"/>
</svg>
