<svg width="32" height="26" viewBox="0 0 32 26" fill="none" xmlns="http://www.w3.org/2000/svg">
<path d="M15.7588 17.0469C15.2432 17.0469 14.7956 16.9609 14.416 16.7891C14.0365 16.6172 13.6676 16.4202 13.3096 16.1982C12.9515 15.9691 12.5469 15.765 12.0957 15.5859C11.6517 15.4069 11.1038 15.3102 10.4521 15.2959C10.0296 15.2887 9.65007 15.3031 9.31348 15.3389C8.98405 15.3675 8.68685 15.4141 8.42188 15.4785L12.9443 12.5137C13.1019 12.4062 13.1771 12.2809 13.1699 12.1377C13.1699 11.9945 13.1126 11.8656 12.998 11.751L11.1182 9.81738L7.69141 12.2344C7.36914 12.4707 7.05046 12.5638 6.73535 12.5137C6.42025 12.4564 6.16602 12.3203 5.97266 12.1055C5.74349 11.8548 5.62891 11.5505 5.62891 11.1924C5.63607 10.8271 5.83659 10.5049 6.23047 10.2256L10.5273 7.1748C10.8353 6.9528 11.1647 6.85612 11.5156 6.88477C11.8665 6.91341 12.1709 7.0638 12.4287 7.33594L20.1631 15.3818C19.6833 15.4749 19.2643 15.6146 18.9062 15.8008C18.5553 15.9798 18.2259 16.166 17.918 16.3594C17.61 16.5527 17.2842 16.7174 16.9404 16.8535C16.6038 16.9824 16.21 17.0469 15.7588 17.0469ZM3.45898 20.1084C3.2513 20.1084 3.07943 20.0404 2.94336 19.9043C2.80729 19.7682 2.73926 19.6035 2.73926 19.4102C2.73926 19.2025 2.80729 19.0306 2.94336 18.8945C3.07943 18.7585 3.2513 18.6904 3.45898 18.6904H4.6084C5.11686 18.6904 5.56087 18.6009 5.94043 18.4219C6.31999 18.2428 6.69954 18.0352 7.0791 17.7988C7.45866 17.5625 7.89193 17.3548 8.37891 17.1758C8.86589 16.9967 9.46745 16.9072 10.1836 16.9072C10.8711 16.9072 11.4548 16.9967 11.9346 17.1758C12.4215 17.3548 12.8584 17.5625 13.2451 17.7988C13.6318 18.0352 14.0186 18.2428 14.4053 18.4219C14.7992 18.6009 15.2503 18.6904 15.7588 18.6904C16.2673 18.6904 16.7148 18.6009 17.1016 18.4219C17.4954 18.2428 17.8857 18.0352 18.2725 17.7988C18.6592 17.5625 19.0924 17.3548 19.5723 17.1758C20.0592 16.9967 20.6501 16.9072 21.3447 16.9072C22.0609 16.9072 22.6624 16.9967 23.1494 17.1758C23.6364 17.3548 24.0661 17.5625 24.4385 17.7988C24.818 18.0352 25.1976 18.2428 25.5771 18.4219C25.9639 18.6009 26.4115 18.6904 26.9199 18.6904H28.0693C28.2699 18.6904 28.4382 18.7585 28.5742 18.8945C28.7174 19.0306 28.7891 19.2025 28.7891 19.4102C28.7891 19.6035 28.7174 19.7682 28.5742 19.9043C28.4382 20.0404 28.2699 20.1084 28.0693 20.1084H26.9199C26.168 20.1084 25.5413 20.0225 25.04 19.8506C24.5459 19.6715 24.109 19.4639 23.7295 19.2275C23.3571 18.984 22.9883 18.7728 22.623 18.5938C22.2578 18.4147 21.8317 18.3252 21.3447 18.3252C20.8792 18.3252 20.4639 18.4147 20.0986 18.5938C19.7406 18.7728 19.3682 18.984 18.9814 19.2275C18.6019 19.4639 18.1579 19.6715 17.6494 19.8506C17.141 20.0225 16.5107 20.1084 15.7588 20.1084C15.014 20.1084 14.3874 20.0225 13.8789 19.8506C13.3704 19.6715 12.9229 19.4639 12.5361 19.2275C12.1566 18.984 11.7842 18.7728 11.4189 18.5938C11.0537 18.4147 10.6419 18.3252 10.1836 18.3252C9.69661 18.3252 9.27051 18.4147 8.90527 18.5938C8.54004 18.7728 8.16764 18.984 7.78809 19.2275C7.40853 19.4639 6.9681 19.6715 6.4668 19.8506C5.97266 20.0225 5.35319 20.1084 4.6084 20.1084H3.45898ZM3.45898 23.2666C3.2513 23.2666 3.07943 23.195 2.94336 23.0518C2.80729 22.9157 2.73926 22.751 2.73926 22.5576C2.73926 22.3571 2.80729 22.1852 2.94336 22.042C3.07943 21.9059 3.2513 21.8379 3.45898 21.8379H4.6084C5.11686 21.8379 5.56445 21.7484 5.95117 21.5693C6.34505 21.3903 6.73535 21.1862 7.12207 20.957C7.50879 20.7207 7.94206 20.513 8.42188 20.334C8.90885 20.1478 9.49609 20.0547 10.1836 20.0547C10.8424 20.0547 11.4082 20.1478 11.8809 20.334C12.3607 20.513 12.7975 20.7207 13.1914 20.957C13.5924 21.1862 13.9935 21.3903 14.3945 21.5693C14.7956 21.7484 15.2503 21.8379 15.7588 21.8379C16.2673 21.8379 16.722 21.7484 17.123 21.5693C17.5241 21.3903 17.9215 21.1862 18.3154 20.957C18.7165 20.7207 19.1533 20.513 19.626 20.334C20.1058 20.1478 20.6787 20.0547 21.3447 20.0547C22.0322 20.0547 22.6159 20.1478 23.0957 20.334C23.5755 20.513 24.0088 20.7207 24.3955 20.957C24.7894 21.1862 25.1797 21.3903 25.5664 21.5693C25.9603 21.7484 26.4115 21.8379 26.9199 21.8379H28.0693C28.2699 21.8379 28.4382 21.9059 28.5742 22.042C28.7174 22.1852 28.7891 22.3571 28.7891 22.5576C28.7891 22.751 28.7174 22.9157 28.5742 23.0518C28.4382 23.195 28.2699 23.2666 28.0693 23.2666H26.9199C26.168 23.2666 25.5413 23.1771 25.04 22.998C24.5459 22.819 24.109 22.6113 23.7295 22.375C23.3571 22.1387 22.9883 21.931 22.623 21.752C22.2578 21.5729 21.8317 21.4834 21.3447 21.4834C20.8792 21.4834 20.4639 21.5729 20.0986 21.752C19.7406 21.931 19.3682 22.1387 18.9814 22.375C18.6019 22.6113 18.1579 22.819 17.6494 22.998C17.141 23.1771 16.5107 23.2666 15.7588 23.2666C15.014 23.2666 14.3874 23.1771 13.8789 22.998C13.3704 22.819 12.9229 22.6113 12.5361 22.375C12.1566 22.1387 11.7842 21.931 11.4189 21.752C11.0537 21.5729 10.6419 21.4834 10.1836 21.4834C9.69661 21.4834 9.27051 21.5729 8.90527 21.752C8.54004 21.931 8.16764 22.1387 7.78809 22.375C7.40853 22.6113 6.9681 22.819 6.4668 22.998C5.97266 23.1771 5.35319 23.2666 4.6084 23.2666H3.45898ZM12.1064 3.93066C12.1064 3.7373 12.1745 3.57259 12.3105 3.43652C12.4538 3.29329 12.6221 3.22168 12.8154 3.22168C13.4242 3.22168 13.9541 3.30404 14.4053 3.46875C14.8636 3.6263 15.3148 3.90202 15.7588 4.2959C16.2028 3.90202 16.6504 3.6263 17.1016 3.46875C17.5599 3.30404 18.0898 3.22168 18.6914 3.22168C18.8991 3.22168 19.071 3.29329 19.207 3.43652C19.3503 3.57259 19.4219 3.7373 19.4219 3.93066C19.4219 4.13118 19.3503 4.30306 19.207 4.44629C19.071 4.58236 18.9027 4.65039 18.7021 4.65039C18.2152 4.65039 17.8105 4.70768 17.4883 4.82227C17.1732 4.92969 16.8652 5.14811 16.5645 5.47754C16.321 5.74967 16.0524 5.88574 15.7588 5.88574C15.4652 5.88574 15.2002 5.74967 14.9639 5.47754C14.6559 5.14811 14.3408 4.92969 14.0186 4.82227C13.7035 4.70768 13.3024 4.65039 12.8154 4.65039C12.6221 4.65039 12.4538 4.58236 12.3105 4.44629C12.1745 4.30306 12.1064 4.13118 12.1064 3.93066ZM20.2705 12.4922C19.8193 12.4922 19.404 12.3812 19.0244 12.1592C18.652 11.9372 18.3548 11.64 18.1328 11.2676C17.918 10.8952 17.8105 10.4798 17.8105 10.0215C17.8105 9.57031 17.918 9.15853 18.1328 8.78613C18.3548 8.41374 18.652 8.11654 19.0244 7.89453C19.404 7.67253 19.8193 7.56152 20.2705 7.56152C20.7288 7.56152 21.1442 7.67253 21.5166 7.89453C21.889 8.11654 22.1826 8.41374 22.3975 8.78613C22.6195 9.15853 22.7305 9.57031 22.7305 10.0215C22.7305 10.4798 22.6195 10.8952 22.3975 11.2676C22.1826 11.64 21.889 11.9372 21.5166 12.1592C21.1442 12.3812 20.7288 12.4922 20.2705 12.4922Z" fill="white"/>
</svg>
